<svg width="512" height="512" viewBox="0 0 512 512" fill="none" xmlns="http://www.w3.org/2000/svg">
  <rect width="512" height="512" rx="64" fill="#10b981"/>
  <path d="M256 96C326.692 96 384 153.308 384 224C384 294.692 326.692 352 256 352C185.308 352 128 294.692 128 224C128 153.308 185.308 96 256 96Z" fill="white"/>
  <path d="M256 128C308.915 128 352 171.085 352 224C352 276.915 308.915 320 256 320C203.085 320 160 276.915 160 224C160 171.085 203.085 128 256 128Z" fill="#10b981"/>
  <path d="M256 160C290.138 160 320 189.862 320 224C320 258.138 290.138 288 256 288C221.862 288 192 258.138 192 224C192 189.862 221.862 160 256 160Z" fill="white"/>
  <path d="M240 200H272V248H240V200Z" fill="#10b981"/>
  <path d="M224 216H288V232H224V216Z" fill="#10b981"/>
  <circle cx="256" cy="384" r="32" fill="white"/>
  <circle cx="256" cy="384" r="16" fill="#10b981"/>
  <path d="M200 360H312C316.418 360 320 363.582 320 368V400C320 404.418 316.418 408 312 408H200C195.582 408 192 404.418 192 400V368C192 363.582 195.582 360 200 360Z" fill="white" fill-opacity="0.8"/>
  <text x="256" y="388" text-anchor="middle" fill="#10b981" font-family="Arial, sans-serif" font-size="24" font-weight="bold">GB</text>
</svg>